<?xml version="1.0" encoding="UTF-8" standalone="no" ?>
<!DOCTYPE svg PUBLIC "-//W3C//DTD SVG 1.1//EN" "http://www.w3.org/Graphics/SVG/1.1/DTD/svg11.dtd">
<svg xmlns="http://www.w3.org/2000/svg" xmlns:xlink="http://www.w3.org/1999/xlink" version="1.1" width="500" height="500" viewBox="0 0 500 500" xml:space="preserve">
<defs>
</defs>
<g transform="matrix(0.9 0 0 0.9 250 250)" id="chww9jSu_1DVGKtlsI0kM"  >
<path style="stroke: gray; stroke-width: 0; stroke-dasharray: none; stroke-linecap: butt; stroke-dashoffset: 0; stroke-linejoin: miter; stroke-miterlimit: 4; fill-rule: nonzero; opacity: 1;" vector-effect="non-scaling-stroke"  transform=" translate(-250, -250)" d="M 250 0 C 388.07119 0 500 111.92881 500 250 C 361.92881 250 250 138.07119 250 0 z M 0 250 C 0 111.92881 111.92881 0 250 0 C 250 138.07119 138.07119 250 0 250 z M 500 250 C 500 388.07119 388.07119 500 250 500 C 250 361.92881 361.92881 250 500 250 z M 0 250 C 138.07119 250 250 361.92881 250 500 C 111.92881 500 0 388.07119 0 250 z" stroke-linecap="round" />
</g>
</svg>